<?xml version="1.0" encoding="UTF-8"?>
<svg xmlns="http://www.w3.org/2000/svg" id="dfa9a29f-57c9-462e-9873-d56f2e52dd13" data-name="8427243a-a1f3-43a0-94f0-2579ee6d15e3" viewBox="0 0 1062.18142 575.63998">
  <defs>
    <style>
      .\32 5da5a21-418f-4f96-a266-f07067c31796 {
        fill: #fff;
      }
    </style>
  </defs>
  <title>BEE-logo-2_RGB-01_weiss</title>
  <path class="25da5a21-418f-4f96-a266-f07067c31796" d="M36.94,514.09H9.3V491.53H38.63v-7.72H0v71.35H40.22v-7.72H9.3V521.7H36.94v-7.61Zm14.73,41.07H61V527.84a29.42993,29.42993,0,0,1,.32-4.44c1.27-6.88,5.93-11.86,12.49-11.86a31.57305,31.57305,0,0,1,3.28.21v-8.67a9.819,9.819,0,0,0-2.54-.31c-6.24,0-12,4.33-14.29,11.2H59.94l-0.42-10H51.35c0.32,4.76.42,9.95,0.42,16l-0.1,35.25v-0.06Zm35,0H96V524.24a14,14,0,0,1,.64-4.34c1.69-5.18,6.46-9.53,12.5-9.53,8.79,0,11.86,7,11.86,15.25v29.54h9.31v-30.6c0-17.57-11-21.79-18.1-21.79a19,19,0,0,0-16.95,9.51H95.05l-0.53-8.35H86.28c0.32,4.23.42,8.47,0.42,13.87v37.36Zm99.93-23.89a24.14954,24.14954,0,0,0,.32-4.46c0-9.44-4.34-24.15-21.06-24.15-14.94,0-24.14,12.17-24.14,27.76,0,15.33,9.52,25.8,25.19,25.8a41.73913,41.73913,0,0,0,17.15-3.28l-1.69-6.55a35.40037,35.40037,0,0,1-14.18,2.53c-9.33,0-17.27-5.17-17.48-17.75l35.89,0.1V531.27Zm-35.79-6.79c0.75-6.47,4.77-15.16,14.3-15.16,10.38,0,12.93,9.33,12.82,15.16H150.81Zm90.52-20.55h-9.3v31.34a12.73,12.73,0,0,1-.85,4.76,13.4,13.4,0,0,1-12.29,8.58c-8.36,0-11.44-6.67-11.44-16.41V503.93h-9.3v30c0,17.89,9.62,22.43,17.67,22.43a19.16012,19.16012,0,0,0,17-9.51H233l0.53,8.35h8.25c-0.32-4-.43-8.68-0.43-14V503.93ZM298,531.27a24.15086,24.15086,0,0,0,.32-4.46c0-9.44-4.33-24.15-21.06-24.15-14.94,0-24.13,12.17-24.13,27.76,0,15.33,9.51,25.8,25.19,25.8a41.77936,41.77936,0,0,0,17.15-3.28l-1.7-6.55a35.4003,35.4003,0,0,1-14.18,2.53c-9.32,0-17.27-5.17-17.48-17.75l35.89,0.1V531.27Zm-35.78-6.79c0.74-6.47,4.77-15.16,14.3-15.16,10.38,0,12.92,9.33,12.81,15.16H262.22Zm47.65,30.68h9.31V527.84a29.46944,29.46944,0,0,1,.31-4.44c1.27-6.88,5.93-11.86,12.5-11.86a31.76035,31.76035,0,0,1,3.28.21v-8.67a9.93009,9.93009,0,0,0-2.54-.31c-6.25,0-12,4.33-14.29,11.2h-0.32l-0.42-10h-8.14c0.31,4.76.42,9.95,0.42,16l-0.11,35.25Zm34.62-13.23c0,4.55-.1,9.73-0.42,13.23h8l0.53-8.46h0.21c3.92,6.77,9.75,9.62,17.16,9.62,11.44,0,23.07-9.09,23.07-27.52,0-15.46-8.88-26-21.59-26-8.26,0-14.19,3.59-17.47,9.3h-0.21V480h-9.31v61.93Zm9.31-16.52a15.44,15.44,0,0,1,14.61-15.35c10,0,15.25,8.79,15.25,19.17,0,11.75-5.72,19.69-15.57,19.69a14.47,14.47,0,0,1-14-10.9,17.73932,17.73932,0,0,1-.31-3.39v-9.22h0.02Zm87-1.68c0-10.28-3.81-21-19.58-21a33.23,33.23,0,0,0-16.94,4.43l2.12,6.25a24.60985,24.60985,0,0,1,13.44-3.82c10.49-.1,11.66,7.63,11.66,11.87v1.06c-19.81-.1-30.81,6.66-30.81,19.05,0,7.42,5.28,14.71,15.66,14.71,7.31,0,12.92-3.59,15.67-7.61h0.32l0.85,6.45h8.35a85.99993,85.99993,0,0,1-.74-12.28V523.73Zm-9.09,14.17a9.4999,9.4999,0,0,1-.43,3,12.92,12.92,0,0,1-12.6,8.58c-4.66,0-8.69-2.75-8.69-8.89,0-10,11.55-11.76,21.72-11.55v8.86Zm24,17.26h9.3V527.84a29.42994,29.42994,0,0,1,.32-4.44c1.27-6.88,5.93-11.86,12.49-11.86a31.57305,31.57305,0,0,1,3.28.21v-8.67a9.81906,9.81906,0,0,0-2.54-.31c-6.24,0-12,4.33-14.29,11.2H464l-0.43-10h-8.14c0.32,4.76.43,9.95,0.43,16l-0.11,35.25Zm75.17-23.89a24.14823,24.14823,0,0,0,.32-4.46c0-9.44-4.34-24.15-21.06-24.15-14.94,0-24.14,12.17-24.14,27.76,0,15.33,9.52,25.8,25.19,25.8a41.73937,41.73937,0,0,0,17.15-3.28l-1.69-6.55a35.40039,35.40039,0,0,1-14.18,2.53c-9.33,0-17.27-5.17-17.48-17.75l35.89,0.1V531.27Zm-35.79-6.79c0.75-6.47,4.77-15.16,14.3-15.16,10.38,0,12.93,9.33,12.82,15.16H495.09Zm107.25-10.39H574.76V491.53h29.32v-7.72H565.45v71.35h40.22v-7.72H574.76V521.7h27.63v-7.61h-0.05Zm14.94,41.07h9.3V524.24a13.70014,13.70014,0,0,1,.64-4.34c1.69-5.18,6.46-9.53,12.5-9.53,8.79,0,11.86,7,11.86,15.25v29.54h9.3v-30.6c0-17.57-11-21.79-18.09-21.79a19,19,0,0,0-17,9.51h-0.21l-0.53-8.35h-8.24c0.31,4.23.42,8.47,0.42,13.87v37.36Zm99.93-23.89a24.31032,24.31032,0,0,0,.31-4.46c0-9.44-4.33-24.15-21.06-24.15-14.93,0-24.13,12.17-24.13,27.76,0,15.33,9.52,25.8,25.19,25.8a41.73937,41.73937,0,0,0,17.15-3.28L713,546.39a35.41966,35.41966,0,0,1-14.19,2.53c-9.32,0-17.26-5.17-17.47-17.75l35.89,0.1H717.21Zm-35.79-6.79c0.74-6.47,4.77-15.16,14.3-15.16,10.38,0,12.92,9.33,12.82,15.16H681.42Zm47.66,30.68h9.3V527.84a29.42993,29.42993,0,0,1,.32-4.44c1.27-6.88,5.93-11.86,12.49-11.86a31.76039,31.76039,0,0,1,3.28.21v-8.67a9.87962,9.87962,0,0,0-2.54-.31c-6.25,0-12,4.33-14.29,11.2h-0.32l-0.42-10h-8.14c0.32,4.76.42,9.95,0.42,16l-0.1,35.25Zm77.61-37.27c0-6.23.1-10.36,0.42-14h-8.25l-0.32,7.61h-0.21c-2.32-4.23-7.09-8.77-16-8.77-11.86,0-23.18,9.72-23.18,27.09,0,14.3,9.09,25.09,21.8,25.09,8,0,13.56-3.81,16.32-8.57h0.21V552c0,13-7,18-16.53,18a27.80962,27.80962,0,0,1-15-4.13l-2.33,7.2c4.13,2.75,10.9,4.22,17.05,4.22,6.46,0,13.66-1.58,18.74-6.12,4.86-4.56,7.3-11.66,7.3-23.51V517.89h-0.0199Zm-9.31,15.36a15.28065,15.28065,0,0,1-.74,5,13.40994,13.40994,0,0,1-12.92,9.64c-10,0-15.15-8.48-15.15-18.43,0-12,6.36-19.49,15.25-19.49,6.89,0,11.34,4.45,13,10a12.79074,12.79074,0,0,1,.53,4.13v9.21Zm34,21.91V503.93h-9.3v51.23h9.3Zm-4.76-60.67a5.83,5.83,0,0,0,6-5.65488q0.00513-.17253,0-0.34512a5.72,5.72,0,0,0-5.50238-5.92963q-0.20883-.00783-0.4176-0.00037a6,6,0,0,0-.21,11.95ZM888,531.27a24.14821,24.14821,0,0,0,.32-4.46c0-9.44-4.33-24.15-21.06-24.15-14.94,0-24.13,12.17-24.13,27.76,0,15.33,9.51,25.8,25.19,25.8a41.7795,41.7795,0,0,0,17.15-3.28l-1.7-6.55a35.40039,35.40039,0,0,1-14.18,2.53c-9.32,0-17.27-5.17-17.48-17.75l35.89,0.1Zm-35.78-6.79c0.74-6.47,4.76-15.16,14.3-15.16,10.38,0,12.92,9.33,12.81,15.16H852.22Zm111.27,6.79a24.31032,24.31032,0,0,0,.31-4.46c0-9.44-4.33-24.15-21.06-24.15-14.93,0-24.13,12.17-24.13,27.76,0,15.33,9.52,25.8,25.19,25.8a41.74008,41.74008,0,0,0,17.2-3.28l-1.69-6.55a35.45985,35.45985,0,0,1-14.19,2.53c-9.32,0-17.26-5.17-17.47-17.75l35.89,0.1h-0.05Zm-35.79-6.79c0.74-6.47,4.77-15.16,14.3-15.16,10.38,0,12.92,9.33,12.82,15.16H927.7Zm50.41,31.84c3.8,0,6.34-2.85,6.34-6.66S982,543,978.25,543a6.30009,6.30009,0,0,0-6.35016,6.24945q-0.00165.20526,0.01013,0.41052c0,3.81,2.53,6.66,6.13,6.66Zm44-1.16,25.51-71.35h-9.85l-12.06006,35.25c-3.29,9.33-6.14,18.32-8.16,26.58h-0.21c-2-8.26-4.65-17-7.62-26.68l-11.11-35.15h-9.98l23.4,71.35h10.08Zm29.86,1.16c3.81006,0,6.35-2.85,6.35-6.66s-2.54-6.66-6.24-6.66a6.31,6.31,0,0,0-6.3595,6.26013h0q-0.00165.2,0.00952,0.39984c0,3.81,2.54,6.66,6.14,6.66h0.1Z" transform="translate(0 -1.65)"></path>
  <path class="25da5a21-418f-4f96-a266-f07067c31796" d="M0.11,427.9a105.99888,105.99888,0,0,0,14.28.85c11.65,0,19.7-2.11,24.57-6.66a18.93,18.93,0,0,0,6.13-14.3c0-10.59-7.93-16.2-14.71-17.78v-0.32C37.79,387.05,42.44,381,42.44,374a15,15,0,0,0-6-12.6c-4.33-3.59-10.26-5.18-19.48-5.18A80.25956,80.25956,0,0,0,.11,357.83V427.9ZM9.3,364a39.33909,39.33909,0,0,1,8.16-.64C26.78,363.32,33,366.71,33,375c0,6.89-5.72,12.08-15.36,12.08H9.3V364Zm0,30h7.63c10.06,0,18.43,4.13,18.43,13.77,0,10.38-8.79,13.87-18.32,13.87a50,50,0,0,1-7.74-.42V394Zm90.84-17H90.83v31.33A12.79987,12.79987,0,0,1,90,413a13.42,13.42,0,0,1-12.29,8.57c-8.37,0-11.44-6.67-11.44-16.41V376.89H57v30c0,17.88,9.63,22.43,17.68,22.43a19.13,19.13,0,0,0,16.94-9.52h0.21l0.53,8.35h8.25c-0.32-4-.42-8.68-0.42-14V376.89Zm15.47,51.22h9.3V397.2a13.65006,13.65006,0,0,1,.64-4.34c1.69-5.19,6.46-9.53,12.49-9.53,8.8,0,11.87,7,11.87,15.25v29.53h9.3V397.52c0-17.57-11-21.8-18.09-21.8a19,19,0,0,0-17,9.52H124l-0.53-8.35h-8.25c0.32,4.23.43,8.46,0.43,13.86v37.36ZM209.3,353v30.48h-0.21c-2.22-4-7.52-7.72-15.46-7.72-12.4,0-23.08,10.36-23,27.52,0,15.57,9.62,26,22,26,8.37,0,14.51-4.34,17.37-10h0.21l0.43,8.88H219c-0.32-3.49-.43-8.68-0.43-13.23V353H209.3Zm0,53.66a16.05978,16.05978,0,0,1-.42,4,14.13,14.13,0,0,1-13.67,11.13c-10,0-15.14-8.57-15.14-19.06,0-11.22,5.72-19.7,15.36-19.7a13.72,13.72,0,0,1,13.45,10.7,17.17033,17.17033,0,0,1,.42,4v8.93Zm65.95-2.39a24.39114,24.39114,0,0,0,.31-4.46c0-9.44-4.33-24.16-21.06-24.16-14.93,0-24.13,12.18-24.13,27.77,0,15.33,9.51,25.79,25.19,25.79a41.77024,41.77024,0,0,0,17.15-3.27l-1.71-6.6a35.2901,35.2901,0,0,1-14.19,2.54c-9.32,0-17.26-5.18-17.48-17.76l35.9,0.11Zm-35.79-6.8c0.74-6.46,4.77-15.16,14.3-15.16,10.38,0,12.92,9.33,12.82,15.16H239.46Zm44.16,28.26A29.26014,29.26014,0,0,0,298,429.28c12,0,19.05-6.34,19.05-15.45,0-7.73-4.65-12.18-13.43-15.46-6.68-2.54-9.65-4.45-9.65-8.79,0-3.81,3-7,8.48-7a21.0001,21.0001,0,0,1,10.48,3l2.22-6.66c-2.75-1.8-7.3-3.17-12.49-3.17-10.91,0-17.67,6.76-17.67,15,0,6.15,4.33,11.12,13.65,14.51,6.78,2.54,9.43,5,9.43,9.43s-3.18,7.62-9.86,7.62a26.21991,26.21991,0,0,1-12.38-3.6l-2.22,7Zm39.07-48.8,19.47,51.22h8.89l20.11-51.22h-9.74l-9.94,28.68c-1.7,4.77-3.18,9-4.34,13.24h-0.32c-1.06-4.23-2.44-8.47-4.13-13.23l-10.05-28.69ZM420,404.23a24.23058,24.23058,0,0,0,.32-4.46c0-9.44-4.34-24.16-21.07-24.16-14.93,0-24.13,12.18-24.13,27.77,0,15.33,9.52,25.79,25.19,25.79a41.77024,41.77024,0,0,0,17.15-3.27l-1.69-6.56a35.20006,35.20006,0,0,1-14.18,2.54c-9.33,0-17.27-5.18-17.48-17.76Zm-35.79-6.8c0.75-6.46,4.77-15.16,14.3-15.16,10.38,0,12.93,9.33,12.82,15.16H384.21Zm47.66,30.68h9.3V400.8a29.55821,29.55821,0,0,1,.32-4.45c1.27-6.88,5.93-11.86,12.49-11.86a29.06033,29.06033,0,0,1,3.28.22V376a9.81976,9.81976,0,0,0-2.54-.32c-6.24,0-12,4.33-14.29,11.21h-0.32l-0.42-10h-8.14c0.32,4.76.42,9.94,0.42,16l-0.1,35.24Zm34.62-13.22c0,4.54-.11,9.73-0.43,13.22h8l0.53-8.45h0.21c3.92,6.76,9.74,9.62,17.16,9.62,11.43,0,23.07-9.09,23.07-27.52,0-15.46-8.88-26-21.59-26-8.26,0-14.19,3.59-17.48,9.3h-0.21V353h-9.3v61.93Zm9.3-16.52a14.57079,14.57079,0,0,1,.53-3.92A14.77,14.77,0,0,1,490.38,383c9.95,0,15.25,8.79,15.25,19.17,0,11.76-5.72,19.7-15.57,19.7a14.48,14.48,0,0,1-14-10.91,17.65078,17.65078,0,0,1-.32-3.39v-9.21Zm87-1.69c0-10.28-3.8-21-19.58-21a33.19,33.19,0,0,0-16.93,4.44l2.11,6.24a24.72988,24.72988,0,0,1,13.45-3.81c10.49-.11,11.65,7.63,11.65,11.87v1.06c-19.81-.11-30.81,6.66-30.81,19.05,0,7.42,5.29,14.71,15.66,14.71,7.31,0,12.93-3.59,15.68-7.61h0.32l0.84,6.44h8.36a85.71,85.71,0,0,1-.75-12.28V396.68Zm-9.09,14.18a9.48041,9.48041,0,0,1-.42,3,13,13,0,0,1-12.61,8.58c-4.66,0-8.68-2.75-8.68-8.9,0-10,11.54-11.76,21.71-11.55v8.9Zm24,17.25H587V397.2a13.99959,13.99959,0,0,1,.63-4.34c1.7-5.19,6.46-9.53,12.5-9.53,8.79,0,11.87,7,11.87,15.25v29.53h9.3V397.52c0-17.57-11-21.8-18.1-21.8a19,19,0,0,0-16.94,9.52h-0.21l-0.53-8.35H577.3c0.32,4.23.42,8.46,0.42,13.86v37.36ZM671.42,353v30.48h-0.21c-2.23-4-7.52-7.72-15.47-7.72-12.39,0-23.07,10.36-23,27.52,0,15.57,9.62,26,22,26,8.37,0,14.51-4.34,17.37-10h0.21l0.42,8.88h8.36c-0.32-3.49-.43-8.68-0.43-13.23V353h-9.25Zm0,53.66a16.53948,16.53948,0,0,1-.42,4,14.13,14.13,0,0,1-13.67,11.13c-10,0-15.14-8.57-15.14-19.06,0-11.22,5.72-19.7,15.35-19.7A13.74,13.74,0,0,1,671,393.71a17.72151,17.72151,0,0,1,.42,4v8.95Z" transform="translate(0 -1.65)"></path>
  <path class="25da5a21-418f-4f96-a266-f07067c31796" d="M0.73,262.47H77.09q40.32,0,63.94-18.76t23.62-50.51q0-53-60.3-66.09,37.53-20.34,37.52-58.06,0-31.54-22-49.47T55.06,1.65H0.73V262.47Zm47.42-244Q120,18.46,120,70.55q0,51.9-71.13,51.9h-28v-104Zm17.93,121q76.91,0,76.91,53.39,0,24.09-17.36,38.46T74.85,245.67h-54V139.44ZM188.38,1.65V262.47H333.63v-16.8H208.54V139.81H327.46v-17H208.54V18.46h122.1V1.65H188.38Zm172.14,0V262.47H505.77v-16.8H380.69V139.81H499.61v-17H380.69V18.46h122.1V1.65H360.52Z" transform="translate(0 -1.65)"></path>
  <path class="25da5a21-418f-4f96-a266-f07067c31796" d="M584.18,169.66665a47.89329,47.89329,0,0,1,9-8.46,144.39246,144.39246,0,0,1,84.91-27.06c42.25-.11,77.93,12.76,100.56,34.91,21.47,21,36.95,52.94,60.67,74C864,264.98666,902,276.66665,942.33,273.79666c39.45-2.82,68.82-19.5,90.59-44,0.16-.68-0.08.82-0.09,0-27.65,44.43-68.82,83.73-145.35,79-62.57-3.89-95.36-35.71-124.67-73.14C732,196.21665,703.58,162.72665,639,162.42666c-19.42-.09-40.44,3.11-54.8,7.26Z" transform="translate(0 -1.65)"></path>
  <path class="25da5a21-418f-4f96-a266-f07067c31796" d="M531.77,228.91665c7.36-20,28.79-37.41,40.43-43.92,31.9-17.13,84.1-17.05,117.48-2.63,32.52,14.06,53.43,47.12,73.13,71.48,22.24,27.48,49.47,48.9,85.61,59,38.18,10.68,85.29,9.11,121.34-9.14,0.07,0.3.18-.13,0.07,0-17.42,22.77-48.74,43.81-89,46.56-41.83,2.84-76.92-9.26-102.23-26.6-49.49-33.93-68-104.21-142.11-115.52-38.78-5.92-73.64,2.37-104.72,20.78v-0.01Z" transform="translate(0 -1.65)"></path>
  <circle class="25da5a21-418f-4f96-a266-f07067c31796" cx="932.09102" cy="132.13111" r="130.09039"></circle>
</svg>
