<svg width="228px" height="34px" viewBox="0 0 228 34" version="1.1" xmlns="http://www.w3.org/2000/svg" xmlns:xlink="http://www.w3.org/1999/xlink" class="logo-icon white-icon">
  <!-- Generator: Sketch 3.7 (28169) - http://www.bohemiancoding.com/sketch -->
  <title>Group 11</title>
  <desc>Created with Sketch.</desc>
  <defs></defs>
  <g id="Page-1" stroke="none" stroke-width="1" fill="none" fill-rule="evenodd">
    <g id="Hover@2x" transform="translate(-594.000000, -26.000000)">
      <g id="Group-15" transform="translate(8.000000, -7.000000)">
        <g id="Group-11" transform="translate(586.000000, 33.000000)">
          <g id="Page-1">
            <path d="M24.2810256,10.4139671 C24.748795,9.91119661 25.1645273,9.81222603 25.5734721,9.75906469 C25.9824168,9.70590335 26.3031246,9.81505376 26.3031246,9.81505376 C26.3031246,9.81505376 26.1311755,8.55897572 24.2035353,8.23435222 C22.2131112,7.89954888 20.9506426,8.54257488 19.5620404,9.88009157 C18.1734381,11.2164772 17.760534,14.0119719 17.7277279,14.3122769 C17.6949218,14.6125819 17.6773875,14.846718 17.8917583,14.8840441 C18.1061291,14.9219357 18.0659699,14.3818391 18.6027453,14.1793735 C19.3159948,13.9107391 21.936522,13.9927433 22.8058831,13.0782552 C23.6752443,12.1643325 23.8341841,10.8941158 24.2810256,10.4139671 M25.2250489,17.9510009 C22.777602,15.2793608 19.2933699,16.8674145 19.1406519,16.9471565 C18.9890652,17.0268985 18.9647434,17.1179514 19.1519643,17.1807271 C19.3391853,17.2435027 20.0801502,17.3543497 20.3906768,17.9159371 C20.7023345,18.4769589 21.0043767,20.2499461 22.1367522,21.1412469 C23.2696932,22.0319821 24.8353352,22.0212367 25.3274265,22.5675543 C25.8195177,23.1138719 25.9196328,23.5855374 25.9196328,23.5855374 C25.9196328,23.5855374 28.1080247,21.0982654 25.2250489,17.9510009 M17.045022,19.9535999 C17.0178722,19.6425495 16.9443413,19.0945353 16.5597183,19.0945353 C16.132108,19.0945353 16.1264517,19.6781789 16.1038268,19.9355024 C16.0806363,20.1922604 16.0857269,21.1491645 15.9188684,23.0906845 C15.7520099,25.0322045 15.1897815,27.4934614 15.1897815,27.4934614 C15.1897815,27.4934614 15.8854967,27.5013791 16.5597183,27.6750018 C17.2339398,27.8486244 17.9290894,28.1970009 17.9290894,28.1970009 C17.9290894,28.1970009 17.6281784,26.624217 17.3962733,24.743776 C17.1649339,22.863335 17.0744344,20.2878377 17.045022,19.9535999 M16.5529308,31.1830846 C8.61781834,31.1830846 2.18443256,24.7511281 2.18443256,16.8165153 C2.18443256,8.88246813 8.61781834,2.449946 16.5529308,2.449946 C24.4886089,2.449946 30.921429,8.88246813 30.921429,16.8165153 C30.921429,24.7511281 24.4886089,31.1830846 16.5529308,31.1830846 M16.5529308,0.265806699 C7.41134639,0.265806699 0,7.6755926 0,16.8165153 C0,25.957438 7.41134639,33.367224 16.5529308,33.367224 C25.6950808,33.367224 33.1058616,25.957438 33.1058616,16.8165153 C33.1058616,7.6755926 25.6950808,0.265806699 16.5529308,0.265806699 M16.5410527,18.0454471 C17.2407273,18.0386606 17.8018244,17.4663279 17.7950369,16.7673128 C17.7882495,16.0682977 17.2158399,15.5067104 16.516731,15.513497 C15.8176221,15.5202835 15.2559593,16.0926162 15.2627468,16.7916313 C15.2695342,17.4912119 15.8419438,18.0522337 16.5410527,18.0454471 M15.4386553,14.5481096 C15.4386553,13.7880156 14.9454328,11.2306158 13.3396316,9.58317983 C11.7609804,7.9634556 10.2609505,7.94705476 9.05843795,8.22813121 C7.85196601,8.51090429 7.12457599,9.79243191 7.12457599,9.79243191 C8.62121207,9.53341177 9.18853104,10.9421873 9.18853104,10.9421873 C9.18853104,10.9421873 10.1597042,12.7360997 10.7881103,13.2778929 C11.4165165,13.8196862 12.4227582,13.8128996 13.2745851,13.8649299 C14.126412,13.9163946 14.371892,13.9695559 14.6275532,14.1352609 C14.88378,14.3020971 15.0766571,14.6131475 15.1349162,14.723429 C15.24295,14.9287222 15.4386553,14.8789542 15.4386553,14.5481096 M13.6954079,16.782017 C13.5834148,16.7215036 13.2734539,16.5263901 12.4991172,16.4172397 C11.1076868,16.2209952 8.7959893,16.3318423 7.27729396,18.0629791 C4.75009441,20.9450024 6.71110623,23.3615811 6.71110623,23.3615811 C6.71110623,23.3615811 6.90058964,22.5788652 7.65626076,22.1801552 C8.4351224,21.7690031 9.29034301,21.8985132 10.2586881,21.3273116 C11.2264675,20.7555444 11.3542981,20.3540066 11.9832698,18.821942 C12.6111104,17.290443 13.1750356,17.1807271 13.5709711,17.149622 C14.1117058,17.1072061 13.8079667,16.843096 13.6954079,16.782017" id="Fill-1" fill="#ffffff"></path>
            <path d="M218.499705,17.0669957 L216.397287,18.9118073 L216.397287,23.8292313 L213.974728,23.8292313 L213.974728,9.80368628 L216.397287,9.80368628 L216.397287,15.9370345 L223.443242,9.80368628 L226.779281,9.80368628 L220.172249,15.5994034 L227.318319,23.8292313 L224.371428,23.8292313 L218.499705,17.0669957 Z M53.7554801,17.0669957 L51.6530628,18.9118073 L51.6530628,23.8292313 L49.2305033,23.8292313 L49.2305033,9.80368628 L51.6530628,9.80368628 L51.6530628,15.9370345 L58.6990173,9.80368628 L62.0344908,9.80368628 L55.4280247,15.5994034 L62.5740943,23.8292313 L59.6272032,23.8292313 L53.7554801,17.0669957 Z M176.55826,19.9184795 L171.699566,9.82800476 L169.043971,9.82800476 L175.79863,23.8292313 L177.317891,23.8292313 L184.098003,9.82800476 L181.416954,9.82800476 L176.55826,19.9184795 Z M196.834681,23.8784338 L199.281562,23.8784338 L199.281562,9.75504931 L196.834681,9.75504931 L196.834681,23.8784338 Z M148.01301,17.9662141 L153.312889,17.9662141 L153.312889,15.667269 L148.01301,15.667269 L148.01301,12.1275155 L156.772233,12.1275155 L156.772233,9.82800476 L145.591016,9.82800476 L145.591016,23.8292313 L157.312403,23.8292313 L157.312403,21.5302861 L148.01301,21.5302861 L148.01301,17.9662141 Z M128.473028,19.0622426 L120.452507,9.82800476 L119.027139,9.82800476 L119.027139,23.8292313 L121.449699,23.8292313 L121.449699,14.5932968 L129.495108,23.8292313 L130.895588,23.8292313 L130.895588,9.82800476 L128.473028,9.82800476 L128.473028,19.0622426 Z M75.3232165,23.8784338 L77.7700977,23.8784338 L77.7700977,9.75504931 L75.3232165,9.75504931 L75.3232165,23.8784338 Z M101.909718,19.0622426 L93.8886307,9.82800476 L92.4638286,9.82800476 L92.4638286,23.8292313 L94.8858225,23.8292313 L94.8858225,14.5932968 L102.931231,23.8292313 L104.331712,23.8292313 L104.331712,9.82800476 L101.909718,9.82800476 L101.909718,19.0622426 Z" id="Fill-3" fill="#ffffff"></path>
          </g>
        </g>
      </g>
    </g>
  </g>
</svg>