<svg width="194" height="69" viewBox="0 0 194 69" fill="none" xmlns="http://www.w3.org/2000/svg">
<g id="lynks-logo-wide">
<path id="Vector (Stroke)" fill-rule="evenodd" clip-rule="evenodd" d="M23.1246 21.7593C17.5454 21.7593 12.3656 27.004 12.3656 34.3351C12.3656 36.1409 10.9017 37.6047 9.096 37.6047C7.29026 37.6047 5.82642 36.1409 5.82642 34.3351C5.82642 24.1638 13.2082 15.2201 23.1246 15.2201C27.4184 15.2201 30.8931 16.3899 33.5712 18.5532C36.209 20.684 37.7904 23.5493 38.7541 26.4609C40.4673 31.6376 40.4427 37.736 40.4258 41.9222C40.4242 42.3159 40.4227 42.6926 40.4227 43.0501C40.4227 44.8559 38.9588 46.3197 37.1531 46.3197C35.3474 46.3197 33.8835 44.8559 33.8835 43.0501C33.8835 42.7123 33.8842 42.3694 33.8849 42.0223C33.8938 37.6524 33.904 32.6186 32.546 28.5155C31.8396 26.3809 30.8324 24.747 29.4621 23.64C28.132 22.5656 26.179 21.7593 23.1246 21.7593ZM22.6946 30.5903C24.5002 30.5623 25.9865 32.0033 26.0146 33.8088C26.0202 34.1697 26.0251 34.5366 26.0301 34.9085C26.0926 39.5339 26.1656 44.9339 27.6175 49.3228C28.3788 51.6242 29.4425 53.3778 30.8578 54.5466C32.2183 55.6701 34.1763 56.4809 37.2086 56.4338C42.6818 56.3489 47.9635 50.7618 47.8387 42.7203C47.8107 40.9148 49.2517 39.4284 51.0572 39.4004C52.8627 39.3724 54.3491 40.8133 54.3771 42.6189C54.5405 53.1502 47.4217 62.8153 37.31 62.9722C32.9516 63.0398 29.4181 61.8383 26.6939 59.5887C24.0247 57.3843 22.4107 54.4039 21.4092 51.3765C19.6197 45.9672 19.5442 39.5555 19.4917 35.1058C19.4868 34.6893 19.4821 34.2899 19.4762 33.9102C19.4482 32.1047 20.8891 30.6183 22.6946 30.5903Z" fill="#6246EA"/>
<path id="Lynks" d="M68.9459 16.5308H75.4521V43.8179C75.4521 44.9832 75.6463 45.7762 76.0347 46.197C76.4232 46.5854 76.9572 46.7796 77.637 46.7796C78.1549 46.7796 78.689 46.7149 79.2393 46.5854C79.7895 46.4559 80.2751 46.2941 80.6959 46.0999L81.5698 51.0523C80.6959 51.4731 79.6762 51.7968 78.511 52.0234C77.3457 52.25 76.2937 52.3633 75.355 52.3633C73.3157 52.3633 71.7297 51.8292 70.5967 50.761C69.4962 49.6605 68.9459 48.1068 68.9459 46.0999V16.5308ZM83.7058 56.9273C84.2884 57.0568 84.8225 57.1701 85.3081 57.2672C85.826 57.3643 86.2629 57.4128 86.619 57.4128C87.234 57.4128 87.7357 57.251 88.1242 56.9273C88.545 56.636 88.9496 56.0857 89.338 55.2765C89.7264 54.4996 90.131 53.3991 90.5518 51.9749L80.5013 26.5328H87.2502L94.0962 45.323L100.117 26.5328H106.332L95.6499 57.0244C95.2615 58.1573 94.6627 59.177 93.8535 60.0833C93.0766 61.022 92.0894 61.7503 90.8917 62.2682C89.7264 62.8185 88.4155 63.0936 86.9589 63.0936C86.441 63.0936 85.9231 63.045 85.4052 62.9479C84.8873 62.8832 84.3208 62.7537 83.7058 62.5595V56.9273ZM133.512 51.9749H127.006V37.7001C127.006 35.6609 126.65 34.1719 125.938 33.2332C125.226 32.2945 124.238 31.8252 122.976 31.8252C122.102 31.8252 121.212 32.0517 120.306 32.5049C119.432 32.9581 118.639 33.5893 117.927 34.3985C117.214 35.1754 116.696 36.0817 116.373 37.1175V51.9749H109.867V26.5328H115.742V31.2425C116.389 30.142 117.214 29.2195 118.218 28.475C119.221 27.6981 120.37 27.1155 121.665 26.7271C122.992 26.3063 124.384 26.0959 125.841 26.0959C127.427 26.0959 128.722 26.3872 129.725 26.9698C130.761 27.5201 131.538 28.2808 132.056 29.2518C132.606 30.1905 132.978 31.2587 133.172 32.4564C133.399 33.654 133.512 34.8679 133.512 36.0979V51.9749ZM156.552 51.9749L149.123 41.0018L145.676 44.4005V51.9749H139.169V16.5308H145.676V37.9915L155.92 26.5814H162.815L153.347 37.3603L163.495 51.9749H156.552ZM175.472 52.4604C173.303 52.4604 171.232 52.1043 169.257 51.3922C167.283 50.6801 165.583 49.6281 164.159 48.2362L166.49 44.0121C168.011 45.2421 169.5 46.1484 170.957 46.7311C172.446 47.3137 173.87 47.605 175.229 47.605C176.492 47.605 177.495 47.3785 178.24 46.9253C179.017 46.4721 179.405 45.7924 179.405 44.886C179.405 44.271 179.195 43.8017 178.774 43.478C178.353 43.1219 177.738 42.8144 176.929 42.5555C176.152 42.2965 175.197 42.0052 174.064 41.6815C172.187 41.0665 170.617 40.4677 169.354 39.885C168.092 39.3024 167.137 38.5741 166.49 37.7001C165.875 36.7938 165.567 35.6447 165.567 34.2528C165.567 32.5697 165.988 31.1292 166.83 29.9316C167.704 28.7016 168.901 27.7467 170.423 27.0669C171.976 26.3872 173.789 26.0473 175.861 26.0473C177.673 26.0473 179.389 26.3386 181.007 26.9213C182.626 27.4715 184.099 28.3779 185.426 29.6403L182.804 33.7673C181.509 32.7639 180.279 32.0356 179.114 31.5824C177.948 31.0969 176.767 30.8541 175.569 30.8541C174.89 30.8541 174.242 30.935 173.627 31.0969C173.045 31.2587 172.559 31.5338 172.171 31.9223C171.815 32.2783 171.636 32.7962 171.636 33.476C171.636 34.091 171.798 34.5765 172.122 34.9326C172.478 35.2563 172.996 35.5476 173.676 35.8066C174.388 36.0655 175.246 36.3568 176.249 36.6805C178.288 37.2632 180.004 37.862 181.396 38.477C182.82 39.092 183.888 39.8527 184.6 40.759C185.312 41.633 185.668 42.8468 185.668 44.4005C185.668 46.9253 184.746 48.8998 182.901 50.324C181.056 51.7483 178.58 52.4604 175.472 52.4604Z" fill="#6246EA"/>
</g>
</svg>
